<?xml version="1.0" encoding="UTF-8"?>
<svg version="1.1" xmlns="http://www.w3.org/2000/svg" width="4500" height="4500">
<path d="M0 0 C1.90526903 -0.00165556 3.81053772 -0.00374449 5.71580586 -0.0062201 C10.90351991 -0.01172034 16.09121725 -0.01112673 21.27893327 -0.00944251 C26.94123265 -0.00870516 32.60352755 -0.01374886 38.26582497 -0.01801753 C49.47465767 -0.02556255 60.6834856 -0.0277888 71.89232058 -0.02834659 C81.21440422 -0.02898293 90.5364849 -0.03196163 99.85856724 -0.03656006 C100.53169706 -0.03689019 101.20482689 -0.03722033 101.89835458 -0.03756046 C104.64032743 -0.03891061 107.38230027 -0.04027329 110.12427311 -0.04165257 C142.50622848 -0.05791239 174.88818311 -0.0643356 207.27014188 -0.06910044 C223.40548966 -0.07148789 239.54083703 -0.07519217 255.6761845 -0.07913754 C307.48473677 -0.09179794 359.29328903 -0.10258243 411.10184282 -0.10597799 C413.57539893 -0.10614023 416.04895503 -0.10630579 418.52251114 -0.10647238 C423.48288332 -0.10680616 428.44325551 -0.10713664 433.40362769 -0.10746694 C439.21044684 -0.10785382 445.01726598 -0.10824343 450.82408513 -0.108638 C452.48601362 -0.10875042 454.1479421 -0.10886184 455.80987059 -0.10897225 C509.17374195 -0.1125209 562.53759983 -0.12759845 615.90146604 -0.15091 C654.27130258 -0.16766476 692.64113656 -0.18313195 731.01097679 -0.18764496 C731.80098799 -0.18773844 732.5909992 -0.18783193 733.40495013 -0.18792825 C750.75231222 -0.18994782 768.09967427 -0.19110343 785.44703648 -0.19145683 C791.65510915 -0.19159299 797.86318181 -0.19180198 804.07125448 -0.19205009 C805.61551965 -0.19211165 807.15978482 -0.19216997 808.70405 -0.19222504 C833.25119331 -0.19314262 857.79832249 -0.20308371 882.34546116 -0.21768252 C907.08698444 -0.23233803 931.82849045 -0.23731587 956.5700173 -0.22926298 C959.99940549 -0.22814783 963.42879371 -0.22713711 966.85818195 -0.22618866 C967.53034254 -0.22599869 968.20250313 -0.22580872 968.89503223 -0.225613 C980.11841979 -0.22272973 991.34177887 -0.23165112 1002.56516013 -0.24382807 C1012.36606163 -0.25362498 1022.16692291 -0.25235516 1031.96782411 -0.24239184 C1037.53823025 -0.23703371 1043.10852588 -0.23617882 1048.67892257 -0.24890056 C1078.89886941 -0.3136166 1108.78991278 0.51971605 1138.64358044 5.69392776 C1139.36069195 5.81636856 1140.07780346 5.93880936 1140.81664562 6.06496048 C1225.05366665 20.58188999 1302.4630389 57.56887081 1368.08108044 112.13142776 C1368.70289196 112.64737503 1369.32470348 113.1633223 1369.96535778 113.69490433 C1377.19398087 119.71716371 1384.04493947 125.94102982 1390.62014294 132.67049026 C1392.78507579 134.83542312 1394.99615779 136.84184767 1397.33108044 138.81892776 C1400.66690031 141.66657888 1403.47675848 144.76472853 1406.30764294 148.10799026 C1408.10569961 150.15951748 1409.99682304 152.04662317 1411.95608044 153.94392776 C1415.82784459 157.76377171 1419.21733697 161.86662822 1422.61623669 166.10799026 C1424.32461202 168.20352515 1426.04321922 170.25188165 1427.82717419 172.27986526 C1440.146794 186.28923435 1451.03410479 201.42276487 1461.08108044 217.13142776 C1461.56899059 217.89084671 1462.05690075 218.65026566 1462.55959606 219.4326973 C1505.63634121 286.79710915 1530.65855921 362.55357508 1537.08108044 442.13142776 C1537.15165661 442.97383011 1537.22223278 443.81623245 1537.29494762 444.68416214 C1545.17486181 543.16224317 1519.13808217 643.95162037 1444.08108044 762.13142776 C1443.63280895 762.73277542 1443.18453747 763.33412308 1442.722682 763.95369339 C1436.49102658 772.28458171 1429.87410959 780.25697357 1423.08108044 788.13142776 C1422.4429945 788.87134964 1421.80490856 789.61127151 1421.14748669 790.37361526 C1419.46986198 792.3030774 1417.7764018 794.21750155 1416.08108044 796.13142776 C1415.4741737 796.82317093 1414.86726696 797.51491409 1414.24196911 798.22761917 C1408.30180613 804.92626596 1402.0730457 811.29343223 1395.73318005 817.60969925 C1394.01399374 819.32350009 1392.30025461 821.04261859 1390.58693981 822.76228714 C1384.92080675 828.43210396 1379.21274219 833.96037223 1373.08108044 839.13142776 C1372.11686169 839.97705276 1371.15264294 840.82267776 1370.15920544 841.69392776 C1360.51054324 850.00990181 1350.35453873 857.60786368 1340.08108044 865.13142776 C1339.34840954 865.66945023 1338.61573864 866.20747269 1337.86086559 866.76179886 C1315.33578977 883.22303436 1291.07968789 897.05330196 1265.98781872 909.20466995 C1264.06368722 910.13988163 1262.14875673 911.09241075 1260.23342419 912.04549026 C1247.53459615 918.28019814 1234.36277214 923.28819019 1221.08108044 928.13142776 C1219.483932 928.71392288 1219.483932 928.71392288 1217.85451794 929.30818558 C1192.04457325 938.59057048 1163.48572988 947.39006793 1136.08108044 950.13142776 C1135.02233715 950.26316391 1133.96359386 950.39490005 1132.87276745 950.5306282 C1127.61993602 949.977594 1125.70948035 947.68366167 1122.17116833 943.96858597 C1121.19404636 942.98576897 1121.19404636 942.98576897 1120.19718456 941.98309708 C1118.04942444 939.81518311 1115.92721443 937.6238901 1113.80373669 935.43220901 C1112.31008902 933.91787292 1110.81465374 932.40529812 1109.31751537 930.89441299 C1105.37802046 926.91119225 1101.45867293 922.90876281 1097.54452038 918.90065384 C1091.28817551 912.49894204 1085.00583129 906.12288731 1078.71590519 899.75419044 C1076.52804874 897.53209713 1074.35126671 895.29958622 1072.17557812 893.06558609 C1070.82417566 891.69048249 1069.4724614 890.31568521 1068.12038708 888.94124222 C1067.52429638 888.32336838 1066.92820568 887.70549454 1066.31405163 887.06889725 C1060.62997359 881.3253827 1054.70474108 876.51942594 1046.38576794 875.98689651 C1040.94229247 876.32826701 1035.81824398 878.51675958 1031.08108044 881.13142776 C1017.96308797 901.19423977 1025.27955647 943.62743774 1025.08108044 956.13142776 C823.45108044 956.13142776 621.82108044 956.13142776 414.08108044 956.13142776 C414.08108044 1052.49142776 414.08108044 1148.85142776 414.08108044 1248.13142776 C410.22393758 1254.55999919 410.22393758 1254.55999919 407.08108044 1256.13142776 C403.89741731 1256.81723662 401.26892122 1256.79738771 398.08108044 1256.13142776 C396.1414599 1254.80857235 396.1414599 1254.80857235 394.27175504 1253.07135147 C393.57994037 1252.4336837 392.8881257 1251.79601594 392.17534695 1251.13902491 C391.13868503 1250.14526432 391.13868503 1250.14526432 390.08108044 1249.13142776 C389.45161336 1248.52842881 388.82214629 1247.92542986 388.17360445 1247.30415822 C386.19221123 1245.37506208 384.23397876 1243.42478571 382.28028679 1241.46764851 C381.53413552 1240.72414907 380.78798426 1239.98064963 380.01922235 1239.2146199 C377.52680627 1236.72984573 375.03791944 1234.24156719 372.54902172 1231.7532692 C370.74192166 1229.95018705 368.9346114 1228.14731555 367.12710935 1226.34463638 C362.68572608 1221.91428207 358.24701749 1217.48125702 353.80914769 1213.0473836 C348.49112189 1207.73438354 343.17024799 1202.42423917 337.84937408 1197.11409173 C324.38509301 1183.67659835 310.92666149 1170.23325185 297.46903536 1156.78909412 C293.82429661 1153.14802785 290.17939289 1149.50712677 286.53445172 1145.86626315 C263.90239449 1123.2594584 241.27194146 1100.65104906 218.64629173 1078.03783131 C213.40949037 1072.80395114 208.17266583 1067.57009417 202.93581676 1062.33626175 C202.28522588 1061.68604177 201.63463499 1061.03582179 200.96432922 1060.36589817 C179.85151176 1039.26524712 158.72931476 1018.17401719 137.60175823 997.08812474 C115.87570139 975.40483422 94.15771641 953.71349381 72.45041346 932.01142775 C69.38626203 928.94801676 66.32202549 925.88469091 63.25774097 922.82141304 C62.65467849 922.21854117 62.051616 921.61566929 61.43027889 920.99452858 C51.71929536 911.28706056 41.99994278 901.58801372 32.2775277 891.89199641 C22.51219615 882.15278075 12.75606865 872.40442141 3.00928023 862.64664764 C-2.78328534 856.84809696 -8.5827232 851.05662302 -14.39219191 845.27500634 C-18.7255116 840.9609307 -23.04570373 836.63395644 -27.3608925 832.30173659 C-29.11136756 830.54844588 -30.86610995 828.79940353 -32.62544177 827.05500025 C-35.01109918 824.68835851 -37.38091253 822.30690381 -39.74733162 819.92104816 C-40.43826276 819.24296625 -41.12919389 818.56488433 -41.84106234 817.86625448 C-46.89429238 812.72100156 -50.34180289 807.19228338 -50.35641956 799.69392776 C-49.83732766 790.49316762 -44.87537266 784.3530353 -38.52943707 778.12391281 C-37.77915971 777.36756664 -37.02888236 776.61122047 -36.25586933 775.83195472 C-33.7394062 773.30125752 -31.20551599 770.78877785 -28.67133045 768.27583694 C-26.84507507 766.44668486 -25.01991733 764.61643631 -23.19576466 762.78518724 C-19.22838002 758.80591684 -15.2518281 754.83599773 -11.26908207 750.87210464 C-5.34689189 744.97787045 0.56087484 739.06933576 6.46581739 733.15782892 C16.40033697 723.21309765 26.34651169 713.28010113 36.29946804 703.35382462 C46.15423732 693.52542454 56.00402979 683.69208184 65.84715939 673.85202408 C66.76545949 672.93402184 66.76545949 672.93402184 67.70231111 671.99747409 C70.81141847 668.88933057 73.92044271 665.78110391 77.02943848 662.67284876 C99.04801088 640.65988961 121.07852766 618.6589197 143.11574841 596.66463089 C164.52004882 575.30200342 185.91766763 553.93271567 207.30715466 532.55525589 C207.96643514 531.89634998 208.62571562 531.23744406 209.3049743 530.5585713 C214.60857309 525.25798056 219.91214847 519.95736639 225.21568054 514.65670889 C248.07687939 491.80793339 270.94336189 468.96444638 293.81098175 446.1220974 C298.12658268 441.81123873 302.44200166 437.50019798 306.75735998 433.18909645 C319.70860772 420.25078772 332.66147521 407.31410682 345.61917819 394.38226265 C350.97953529 389.03254848 356.33916156 383.68210791 361.6965704 378.32944107 C366.59293565 373.43742289 371.49178203 368.54790239 376.39246415 363.66020876 C378.17250793 361.88408515 379.95170217 360.10710966 381.72999658 358.32923454 C384.13214144 355.92792592 386.53728923 353.52966763 388.94328022 351.13221359 C389.99736512 350.07633203 389.99736512 350.07633203 391.07274467 348.99911952 C391.70978476 348.36560785 392.34682485 347.73209618 393.00316918 347.07938719 C393.82868003 346.25532041 393.82868003 346.25532041 394.67086787 345.41460583 C397.51681355 342.8250281 400.20737304 342.7982624 403.97951794 342.84627151 C407.41877717 343.3129368 409.49254561 344.91268363 412.08108044 347.13142776 C414.0126657 350.20331185 414.3302832 352.55462423 414.32717609 356.15265656 C414.33115819 357.17080547 414.33514029 358.18895438 414.33924305 359.23795629 C414.33341737 360.35467993 414.32759169 361.47140357 414.32158947 362.62196732 C414.32329832 363.8096152 414.32500717 364.99726308 414.3267678 366.2209003 C414.32949523 369.51840772 414.32323434 372.81567844 414.31321168 376.11315727 C414.30458308 379.66867571 414.30749692 383.22418671 414.30901623 386.77971268 C414.31006545 392.94021465 414.30378493 399.10067429 414.29254055 405.26116562 C414.2762936 414.16822011 414.27107837 423.07525412 414.26856457 431.98232183 C414.2641862 446.43307708 414.25087325 460.88380977 414.23195934 475.33455276 C414.21360421 489.37296307 414.19944591 503.41136726 414.19094372 517.44978714 C414.19041827 518.31496496 414.18989282 519.18014279 414.18935145 520.07153812 C414.1867414 524.41183621 414.18421398 528.75213434 414.18172765 533.0924325 C414.16099073 569.10544686 414.12576134 605.11843555 414.08108044 641.13142776 C475.2487659 641.07028091 536.41644862 641.00667668 597.58411694 640.9301033 C598.94327504 640.92840287 598.94327504 640.92840287 600.32989088 640.92666808 C620.02464189 640.90201344 639.71939232 640.87692041 659.4141422 640.85137615 C669.07322242 640.83885091 678.73230276 640.82642248 688.39138317 640.81404495 C689.35254925 640.81281163 690.31371533 640.8115783 691.30400765 640.81030761 C722.42690524 640.77041746 753.54980569 640.73691344 784.67271408 640.70674086 C816.67042661 640.67568631 848.6681252 640.63814966 880.66582042 640.59252164 C885.19105 640.58607177 889.71627969 640.57969557 894.24150944 640.57336426 C895.57738143 640.5714918 895.57738143 640.5714918 896.94024074 640.56958152 C911.24396793 640.54972146 925.54769356 640.53664224 939.85143034 640.52613449 C954.2509886 640.51541034 968.65052377 640.49745747 983.05006409 640.47226073 C991.59244216 640.45752903 1000.13478489 640.44820489 1008.67717577 640.44686093 C1014.40065596 640.44541159 1020.12409658 640.43666771 1025.84755874 640.42227184 C1029.09770097 640.41429754 1032.3477521 640.41034811 1035.59790517 640.41314895 C1086.45615127 640.44975342 1132.65625373 630.68650504 1171.08108044 595.13142776 C1171.59364391 594.65737503 1172.10620739 594.1833223 1172.63430309 593.69490433 C1204.26865309 564.05069654 1219.97151067 523.33426597 1222.26858044 480.64705276 C1223.19569385 434.98671725 1203.41473454 393.66425072 1172.45608044 361.13142776 C1156.08264438 345.24636735 1135.74026489 332.37414868 1114.08108044 325.13142776 C1113.33568005 324.87667679 1112.59027966 324.62192581 1111.82229137 324.35945511 C1109.35378228 323.52809973 1106.8767403 322.73037883 1104.39358044 321.94392776 C1103.66517956 321.70561234 1102.93677868 321.46729691 1102.18630505 321.2217598 C1084.63695399 315.92293042 1066.53204133 315.69291926 1048.36617565 315.73270035 C1045.8162841 315.72725093 1043.26639508 315.72049525 1040.71651006 315.71255845 C1035.20713057 315.6983641 1029.69786264 315.69324659 1024.18846798 315.69643593 C1015.99644916 315.70112747 1007.80451793 315.6885415 999.61251647 315.6726062 C985.82707285 315.6462703 972.04164932 315.63366216 958.25618267 315.62904167 C944.61870292 315.62442533 930.98125098 315.61360698 917.34378338 315.59461403 C916.49394125 315.5934339 915.64409912 315.59225377 914.7685042 315.59103788 C910.45209567 315.58501196 906.1356873 315.57887629 901.81927899 315.57269838 C871.29392327 315.52920568 840.76856822 315.49945486 810.24318981 315.47786331 C780.59929945 315.45686363 750.95542563 315.42959098 721.31154919 315.39387894 C720.39682938 315.39277946 719.48210957 315.39167998 718.53967099 315.39054719 C709.35317569 315.37949828 700.16668054 315.36832242 690.98018551 315.35705357 C672.26839565 315.33410315 653.55660482 315.31199978 634.84481335 315.29040909 C633.55447675 315.28891866 633.55447675 315.28891866 632.23807274 315.28739812 C574.85242211 315.22121075 517.46675227 315.17482692 460.08108044 315.13142776 C460.07965542 314.34739578 460.0782304 313.5633638 460.0767622 312.75557327 C460.0588795 305.34079503 460.01711151 297.926707 459.94898987 290.51223373 C459.91480296 286.7009747 459.88962298 282.89011296 459.8855238 279.07869339 C459.88122276 275.39543536 459.8526134 271.71307224 459.80764866 268.03009415 C459.79473075 266.6300517 459.79034567 265.22990183 459.79492664 263.82980728 C459.81524463 255.72916728 459.67366364 249.35969279 454.08108044 243.13142776 C448.98837282 238.29335553 444.49872448 236.94878113 437.65529919 236.67049026 C432.32086827 237.62566909 427.60128275 239.88916725 424.44483757 244.3877058 C423.63328809 245.68156752 422.83810908 246.98579616 422.05683422 248.29816055 C421.10954228 249.78148014 420.15596239 251.26079738 419.1970911 252.7366581 C418.69050646 253.51770432 418.18392181 254.29875055 417.66198611 255.10346484 C399.89416301 281.74703315 375.1752347 310.88402295 342.50889232 317.96583407 C320.17070281 322.36248816 297.12931153 322.54670383 274.44436169 322.54158401 C273.09920767 322.54234638 273.09920767 322.54234638 271.72687882 322.54312414 C248.34813657 322.53867219 225.00736924 321.81278222 201.65094078 320.85024107 C188.18957031 320.30152562 174.73231105 319.9338041 161.26198864 319.69368362 C159.83452709 319.66815371 159.83452709 319.66815371 158.37822793 319.64210803 C153.59410361 319.55756519 148.80993086 319.47628779 144.02571833 319.39690602 C134.6380774 319.24073933 125.25076607 319.06766955 115.86359692 318.88544083 C114.49622868 318.85897249 114.49622868 318.85897249 113.10123684 318.83196943 C99.87439541 318.57201816 86.65330471 318.21054479 73.43149853 317.76376724 C72.60393101 317.7358672 71.77636349 317.70796716 70.92371816 317.67922167 C66.83883263 317.54116588 62.75398804 317.4019232 58.66914976 317.26247776 C-25.19071474 314.40675833 -107.07658352 319.57359682 -196.91891956 357.13142776 C-197.90650257 357.5642305 -198.89408558 357.99703323 -199.91159534 358.4429512 C-248.34919314 379.72719815 -291.92508428 409.51786303 -330.91891956 445.13142776 C-331.87540394 445.99509964 -332.83188831 446.85877151 -333.81735706 447.74861526 C-342.67385734 455.76784135 -351.36663056 463.95635468 -359.12595081 473.06111526 C-361.2503878 475.51416887 -363.46080593 477.87845924 -365.66891956 480.25642776 C-370.89310046 485.99201191 -375.65892489 492.01687741 -380.39011097 498.16121292 C-382.01234525 500.25182784 -383.65684485 502.32342413 -385.30563831 504.39314651 C-393.42452099 514.62467018 -400.89004108 525.12466749 -407.91891956 536.13142776 C-408.43808949 536.93918655 -408.95725941 537.74694534 -409.49216175 538.57918167 C-457.00048513 612.78747159 -483.86746465 698.9872484 -485.91891956 787.13142776 C-485.95179066 788.40469925 -485.95179066 788.40469925 -485.98532581 789.70369339 C-488.0823879 883.86178088 -460.95480859 977.17777259 -401.91891956 1069.13142776 C-401.53494007 1069.68733597 -401.15096058 1070.24324417 -400.75534534 1070.81599808 C-383.51204082 1095.71106372 -363.77916965 1118.48312022 -342.34470081 1139.83601761 C-340.65210609 1141.52318734 -338.96501359 1143.21572972 -337.27829456 1144.90877151 C-331.66084475 1150.52991607 -325.99604874 1156.00264041 -319.91891956 1161.13142776 C-318.95470081 1161.97705276 -317.99048206 1162.82267776 -316.99704456 1163.69392776 C-307.34838237 1172.00990181 -297.19237785 1179.60786368 -286.91891956 1187.13142776 C-285.81991322 1187.93846146 -285.81991322 1187.93846146 -284.69870472 1188.76179886 C-219.04996872 1236.73763308 -141.09685148 1266.46987433 -60.73141956 1277.31892776 C-59.61307728 1277.47393753 -58.49473499 1277.6289473 -57.34250355 1277.78865433 C-32.54351028 1280.93849533 -7.99588723 1281.35611304 16.93173122 1280.43784523 C24.75085321 1280.14991824 32.57166203 1279.91334048 40.39234847 1279.67242552 C42.24908392 1279.6150848 44.10580364 1279.55723212 45.96250755 1279.49887882 C60.60937784 1279.03924272 75.25603387 1278.69347013 89.90767956 1278.42844009 C90.9097458 1278.41024282 91.91181205 1278.39204555 92.94424394 1278.37329685 C103.28289258 1278.18707117 113.62172844 1278.01420596 123.96076681 1277.85114514 C129.24636805 1277.76713999 134.53190345 1277.67952064 139.81740856 1277.58967972 C140.86878851 1277.57186605 141.92016846 1277.55405238 143.0034084 1277.5356989 C157.83059797 1277.27769034 172.64397217 1276.84406622 187.46239787 1276.27649374 C213.04735021 1275.29728159 238.61658098 1274.6548618 264.22170544 1274.65877151 C265.20616453 1274.6581759 266.19062362 1274.65758029 267.20491481 1274.65696663 C313.38157297 1274.67506563 354.6464321 1275.06268613 389.20943737 1309.12594986 C401.62222312 1322.04671632 412.69818898 1336.3822109 421.62874722 1351.93034881 C424.72186251 1357.16506182 428.18209777 1360.16510021 434.08108044 1362.13142776 C441.43423491 1363.09798218 446.540439 1361.99078677 452.88967419 1358.22517776 C455.93300909 1355.55343717 455.93300909 1355.55343717 459.08108044 1348.13142776 C459.41108044 1326.35142776 459.74108044 1304.57142776 460.08108044 1282.13142776 C661.38108044 1282.13142776 862.68108044 1282.13142776 1070.08108044 1282.13142776 C1070.08108044 1186.10142776 1070.08108044 1090.07142776 1070.08108044 991.13142776 C1074.78696279 984.07260424 1074.78696279 984.07260424 1078.08108044 983.13142776 C1083.26780378 982.65990746 1085.86420939 983.1638791 1090.08108044 986.13142776 C1092.67054042 988.44024252 1095.11092544 990.88768473 1097.5567894 993.34707451 C1098.30424466 994.09072409 1099.05169991 994.83437368 1099.82180533 995.6005581 C1102.33914965 998.10755039 1104.84928726 1000.62163718 1107.35953808 1003.13573074 C1109.17549573 1004.94723797 1110.99188439 1006.75831323 1112.80866808 1008.56899202 C1116.76524571 1012.51371832 1120.71806676 1016.46217811 1124.66845608 1020.4131012 C1130.54289698 1026.28833496 1136.42299253 1032.15788488 1142.30415736 1038.02638691 C1154.0307654 1049.72824779 1165.74938447 1061.43809056 1177.46613107 1073.14982414 C1178.37643283 1074.05973413 1178.37643283 1074.05973413 1179.30512452 1074.98802614 C1179.91319862 1075.59583997 1180.52127272 1076.20365379 1181.1477733 1076.82988621 C1187.88395316 1083.56298475 1194.62184356 1090.29437078 1201.35979557 1097.0256958 C1221.70691356 1117.35316568 1242.05240865 1137.68225633 1262.3911171 1158.01814079 C1263.04174466 1158.66867429 1263.69237222 1159.31920779 1264.36271577 1159.98945443 C1266.99947092 1162.6258311 1269.63621883 1165.26221501 1272.27296499 1167.89860067 C1274.25758574 1169.8829497 1276.24220897 1171.86729625 1278.22683239 1173.85164261 C1279.21052237 1174.83520055 1279.21052237 1174.83520055 1280.21408487 1175.83862835 C1300.82254379 1196.44418142 1321.44057604 1217.04011428 1342.06569958 1237.62898636 C1365.23123179 1260.75380315 1388.38824339 1283.88710861 1411.53357786 1307.03214204 C1414.00108066 1309.49954802 1416.4686184 1311.96691904 1418.93618107 1314.43426514 C1419.54376509 1315.04180504 1420.1513491 1315.64934494 1420.77734476 1316.27529515 C1430.56011596 1326.05694595 1440.35101183 1335.83042514 1450.14478955 1345.6010543 C1459.985658 1355.41909366 1469.81720381 1365.24639215 1479.63934905 1375.0831631 C1485.47614446 1380.92811697 1491.3197806 1386.76603027 1497.17345138 1392.59408458 C1501.54159638 1396.94465186 1505.89659657 1401.30815441 1510.24658924 1405.67686753 C1512.00996181 1407.44374855 1513.77758903 1409.20639546 1515.54981864 1410.9643925 C1517.95532439 1413.35181719 1520.34494855 1415.75409923 1522.73121262 1418.16073418 C1523.77217467 1419.18285117 1523.77217467 1419.18285117 1524.83416626 1420.22561699 C1530.92699788 1426.43057717 1534.53188647 1432.86793239 1534.51467419 1441.69783401 C1533.06469728 1449.8359927 1529.55078205 1454.38499635 1523.7990284 1460.03151226 C1523.04821651 1460.78839296 1522.29740463 1461.54527366 1521.52384087 1462.32509014 C1518.99955239 1464.8636398 1516.4577966 1467.3839379 1513.91578197 1469.90472794 C1512.0862645 1471.73714142 1510.25784454 1473.57065124 1508.43043095 1475.40516287 C1504.45282628 1479.39466325 1500.46603721 1483.37479582 1496.47307301 1487.34892082 C1490.53567236 1493.2583857 1484.61267333 1499.18212944 1478.69251177 1505.10885832 C1468.73278293 1515.078803 1458.76139017 1525.03700439 1448.78322697 1534.98849678 C1438.90251452 1544.84284627 1429.02677298 1554.7021326 1419.15769672 1564.56813622 C1418.23721399 1565.48832109 1418.23721399 1565.48832109 1417.29813565 1566.42709555 C1414.18167929 1569.54258809 1411.06530604 1572.65816374 1407.94896127 1575.7737679 C1385.87437321 1597.84274167 1363.78783842 1619.89972398 1341.69460583 1641.95003128 C1320.23496918 1663.3679996 1298.78201023 1684.79262435 1277.33718395 1706.22542191 C1276.67627789 1706.8859534 1276.01537182 1707.5464849 1275.3344383 1708.2270325 C1270.01778928 1713.54067349 1264.70116366 1718.8543379 1259.38458134 1724.16804563 C1236.46665699 1747.07354629 1213.5434488 1769.97375828 1190.61910412 1792.87283313 C1186.29248169 1797.19471318 1181.96604127 1801.51677539 1177.63966155 1805.83889842 C1164.65457454 1818.81104603 1151.66786786 1831.78156592 1138.67632609 1844.74724948 C1133.30179904 1850.11113352 1127.92800287 1855.47574403 1122.55642414 1860.8425808 C1117.64706604 1865.74759182 1112.73522678 1870.65010519 1107.82155181 1875.55079169 C1106.03676752 1877.33165579 1104.2528328 1879.11337177 1102.4697979 1880.89598738 C1100.06124542 1883.30370363 1097.64968997 1885.70836961 1095.23729134 1888.11223125 C1094.53267788 1888.81804249 1093.82806441 1889.52385373 1093.10209903 1890.25105318 C1092.4633693 1890.8862545 1091.82463957 1891.52145581 1091.16655439 1892.17590564 C1090.61474224 1892.72675508 1090.06293009 1893.27760451 1089.49439636 1893.84514635 C1086.4230737 1896.6404062 1083.3922775 1896.51901806 1079.40920544 1896.48689651 C1075.45338362 1895.88290359 1073.7744962 1894.02684971 1071.08108044 1891.13142776 C1070.0979883 1888.18215137 1069.95671086 1886.29069608 1069.95803261 1883.21762943 C1069.95504604 1881.68816755 1069.95504604 1881.68816755 1069.95199913 1880.12780744 C1069.95491197 1879.00428001 1069.95782481 1877.88075258 1069.96082592 1876.72317886 C1069.9599715 1875.53230185 1069.95911707 1874.34142484 1069.95823675 1873.11446065 C1069.95687155 1869.80335878 1069.96000777 1866.49231567 1069.96501482 1863.18122089 C1069.96932469 1859.61273312 1069.96787251 1856.04424724 1069.96711254 1852.4757576 C1069.96658765 1846.29124202 1069.96973084 1840.10673697 1069.97535038 1833.92222404 C1069.98347005 1824.98040628 1069.98608108 1816.03859362 1069.98733837 1807.09677257 C1069.98952815 1792.59001087 1069.99618625 1778.08325478 1070.00564098 1763.57649612 C1070.014817 1749.48274641 1070.02189691 1735.38899822 1070.0261488 1721.29524612 C1070.02641152 1720.42681858 1070.02667424 1719.55839104 1070.02694493 1718.66364751 C1070.02824995 1714.30709469 1070.02951366 1709.95054185 1070.03075683 1705.59398901 C1070.04112715 1669.43979797 1070.05874347 1633.2856133 1070.08108044 1597.13142776 C1069.11666169 1597.13158375 1068.15224295 1597.13173973 1067.1585994 1597.13190043 C1034.13845639 1597.13723333 1001.11831335 1597.14234392 968.09817028 1597.14729691 C967.10038353 1597.1474466 967.10038353 1597.1474466 966.08243947 1597.14759932 C894.81869115 1597.15828477 823.55494282 1597.16750836 752.29119396 1597.1737709 C750.7085679 1597.17391036 749.12594183 1597.17404981 747.54331577 1597.17418926 C714.32493502 1597.17711183 681.10655426 1597.17982856 647.88817348 1597.18230744 C631.20194147 1597.18355286 614.51570947 1597.18483783 597.82947746 1597.18616021 C595.31239317 1597.18635945 592.79530887 1597.18655757 590.27822457 1597.18675565 C551.51015774 1597.1898163 512.74209122 1597.19372637 473.97402477 1597.20009232 C473.14022342 1597.20022921 472.30642207 1597.20036611 471.44735402 1597.20050716 C458.00366557 1597.20271958 444.55997713 1597.20500317 431.1162887 1597.20729621 C392.40306357 1597.21389827 353.68983868 1597.21997571 314.97661304 1597.22256756 C313.78291753 1597.22264786 313.78291753 1597.22264786 312.56510695 1597.22272979 C295.09709934 1597.22389544 277.62909173 1597.22479035 260.1610841 1597.22542875 C253.13296789 1597.22569038 246.1048517 1597.225991 239.0767355 1597.22630501 C238.30753 1597.22633844 237.5383245 1597.22637186 236.74580974 1597.2264063 C211.94565578 1597.22750344 187.1455036 1597.23177688 162.34535036 1597.23770997 C137.37127188 1597.24367018 112.39719512 1597.24652827 87.42311591 1597.24505175 C83.97478783 1597.24484866 80.52645975 1597.24468128 77.07813168 1597.24453545 C76.4021397 1597.24450557 75.72614772 1597.24447569 75.02967114 1597.2444449 C63.65771551 1597.24404051 52.28576465 1597.24761137 40.91380993 1597.25222531 C31.03478238 1597.25596111 21.1557591 1597.2561014 11.27673126 1597.25325958 C5.63919792 1597.25174254 0.00167689 1597.2518442 -5.63585515 1597.25631095 C-10.75826668 1597.26033892 -15.88065621 1597.25981578 -21.00306737 1597.25556774 C-22.85063384 1597.25484993 -24.6982019 1597.25583083 -26.54576635 1597.25866301 C-29.04505538 1597.26225316 -31.54426552 1597.2597222 -34.04355204 1597.25562626 C-34.76158843 1597.25813514 -35.47962481 1597.26064402 -36.21941987 1597.26322892 C-40.22871675 1597.24912031 -43.98173527 1596.8677666 -47.91891956 1596.13142776 C-50.50228307 1595.91186178 -53.0783729 1595.71836183 -55.66501331 1595.55330276 C-57.21975454 1595.44698925 -58.77443981 1595.339855 -60.32907581 1595.2320137 C-61.55521595 1595.14735855 -61.55521595 1595.14735855 -62.80612659 1595.06099319 C-146.57420484 1589.16290574 -229.29199521 1569.84527381 -358.91891956 1514.13142776 C-359.86364124 1513.67268265 -360.80836292 1513.21393753 -361.78171253 1512.74129105 C-404.22500111 1492.1102719 -444.25726397 1466.507383 -481.91891956 1438.13142776 C-482.51994495 1437.67961136 -483.12097034 1437.22779495 -483.74020863 1436.76228714 C-496.95842496 1426.79696133 -509.73231205 1416.25497328 -522.31247425 1405.49959183 C-523.94846799 1404.10626221 -525.59304324 1402.72362807 -527.23923206 1401.34236526 C-533.56332322 1396.01297597 -539.71988798 1390.53364329 -545.73923206 1384.86189651 C-546.83616886 1383.82845108 -546.83616886 1383.82845108 -547.955266 1382.77412796 C-555.69125972 1375.45082341 -563.24897702 1367.9528875 -570.77048206 1360.41023636 C-573.07401083 1358.10126541 -575.38295093 1355.79779999 -577.69235706 1353.49470901 C-579.18747003 1351.99893636 -580.68227337 1350.50285413 -582.17673206 1349.00642776 C-582.85285542 1348.33232864 -583.52897877 1347.65822952 -584.22559071 1346.96370316 C-588.11013407 1343.06018537 -591.81677944 1339.05141755 -595.41037464 1334.87808609 C-597.48520913 1332.47575329 -599.64009745 1330.15042208 -601.79391956 1327.81892776 C-605.88772165 1323.3299472 -609.77361624 1318.71899301 -613.58688831 1313.99080276 C-615.62340563 1311.49376646 -617.70149934 1309.03988828 -619.80295277 1306.59749222 C-626.23030972 1299.11097117 -632.23290212 1291.33504149 -638.16696644 1283.45418167 C-639.97795386 1281.05315961 -641.79947612 1278.66038637 -643.62204456 1276.26814651 C-652.08358902 1265.12401951 -660.16635439 1253.77939405 -667.91891956 1242.13142776 C-668.44163441 1241.34864456 -668.96434925 1240.56586136 -669.50290394 1239.75935745 C-686.80137567 1213.76909519 -702.18257346 1186.72833898 -716.45163441 1158.97810745 C-717.81201452 1156.33883423 -719.18692669 1153.70761487 -720.56345081 1151.07674026 C-757.44087157 1079.81089933 -780.46769362 1000.56693434 -763.97560596 553.5448494 C-746.31444104 498.45868814 -722.49270759 444.49814622 -692.59860706 394.92146683 C-690.91974913 392.13280572 -689.26197916 389.33240748 -687.60641956 386.52986526 C-666.44649939 350.96456712 -641.81804316 317.47616981 -615.0129137 285.97932816 C-612.0112896 282.446611 -609.07709999 278.86692388 -606.16891956 275.25642776 C-603.15432508 271.54987121 -600.03335936 268.12324868 -596.59860706 264.80720901 C-594.77514063 262.9879832 -593.09873678 261.08374866 -591.41891956 259.13142776 C-588.66462065 255.93447367 -585.77097251 252.95683339 -582.75900745 250.0042305 C-580.99647485 248.21036191 -579.35941428 246.36047622 -577.72751331 244.44783401 C-573.82845318 239.96510077 -569.69247311 235.75723935 -565.48141956 231.56892776 C-564.76921253 230.85285355 -564.0570055 230.13677933 -563.32321644 229.39900589 C-559.22945403 225.31267993 -555.029999 221.41958081 -550.64914417 217.64339066 C-548.64425309 215.8914095 -546.76797233 214.04651813 -544.91891956 212.13142776 C-541.08337403 208.25145506 -537.06647877 204.67285763 -532.91891956 201.13142776 C-531.86527571 200.22547824 -530.81191279 199.31920194 -529.75876331 198.41267776 C-526.75039895 195.82541656 -523.73566944 193.24570121 -520.71823597 190.66902542 C-519.55809696 189.67763391 -518.39884862 188.68519872 -517.24069691 187.69148636 C-491.94038362 165.98483779 -464.8679134 146.28213044 -436.91891956 128.13142776 C-436.2257262 127.68122269 -435.53253284 127.23101761 -434.81833363 126.76716995 C-359.17536289 77.86903335 -275.21287443 42.28554591 -60.10641956 2.44392776 C-59.34969959 2.38289871 -58.59297962 2.32186966 -57.81332874 2.25899124 C-38.55728979 0.72832629 -19.31519135 -0.0209488 0 0 Z " fill="#1C8FC7" transform="translate(1881.9189195632935,1301.8685722351074)"/>
</svg>
